<svg width="15" height="15" viewBox="0 0 15 15" fill="none" xmlns="http://www.w3.org/2000/svg">
<path d="M14.5607 0.43934C13.9749 -0.146447 13.0251 -0.146447 12.4393 0.43934L7.5 5.37868L2.56066 0.43934C1.97487 -0.146447 1.02513 -0.146447 0.43934 0.43934C-0.146447 1.02513 -0.146447 1.97487 0.43934 2.56066L5.37868 7.5L0.43934 12.4393C-0.146447 13.0251 -0.146447 13.9749 0.43934 14.5607C1.02513 15.1464 1.97487 15.1464 2.56066 14.5607L7.5 9.62132L12.4393 14.5607C13.0251 15.1464 13.9749 15.1464 14.5607 14.5607C15.1464 13.9749 15.1464 13.0251 14.5607 12.4393L9.62132 7.5L14.5607 2.56066C15.1464 1.97487 15.1464 1.02513 14.5607 0.43934Z" fill="#414141" fill-opacity="0.6"/>
</svg>
